<svg width="212" height="38" viewBox="0 0 212 38" fill="none" xmlns="http://www.w3.org/2000/svg">
<path d="M11.42 37.96C9.5 37.96 7.66 37.68 5.9 37.12C4.14 36.56 2.71333 35.76 1.62 34.72L3.06 32.56C4.04667 33.44 5.26 34.1333 6.7 34.64C8.16667 35.1733 9.71333 35.44 11.34 35.44C14.0067 35.44 15.9667 34.8133 17.22 33.56C18.4733 32.3333 19.1 30.4133 19.1 27.8V22.56L19.5 18.96L19.22 15.36V9H21.94V27.44C21.94 31.0667 21.0467 33.72 19.26 35.4C17.5 37.1067 14.8867 37.96 11.42 37.96ZM10.9 29.2C8.9 29.2 7.1 28.7733 5.5 27.92C3.9 27.04 2.63333 25.8267 1.7 24.28C0.793334 22.7333 0.34 20.96 0.34 18.96C0.34 16.96 0.793334 15.2 1.7 13.68C2.63333 12.1333 3.9 10.9333 5.5 10.08C7.1 9.22667 8.9 8.8 10.9 8.8C12.7667 8.8 14.4467 9.18667 15.94 9.96C17.4333 10.7333 18.62 11.88 19.5 13.4C20.38 14.92 20.82 16.7733 20.82 18.96C20.82 21.1467 20.38 23 19.5 24.52C18.62 26.04 17.4333 27.2 15.94 28C14.4467 28.8 12.7667 29.2 10.9 29.2ZM11.18 26.68C12.7267 26.68 14.1 26.36 15.3 25.72C16.5 25.0533 17.4467 24.1467 18.14 23C18.8333 21.8267 19.18 20.48 19.18 18.96C19.18 17.44 18.8333 16.1067 18.14 14.96C17.4467 13.8133 16.5 12.92 15.3 12.28C14.1 11.6133 12.7267 11.28 11.18 11.28C9.66 11.28 8.28667 11.6133 7.06 12.28C5.86 12.92 4.91333 13.8133 4.22 14.96C3.55333 16.1067 3.22 17.44 3.22 18.96C3.22 20.48 3.55333 21.8267 4.22 23C4.91333 24.1467 5.86 25.0533 7.06 25.72C8.28667 26.36 9.66 26.68 11.18 26.68ZM28.4028 37.96C27.4161 37.96 26.4695 37.8 25.5628 37.48C24.6828 37.16 23.9228 36.68 23.2828 36.04L24.6028 33.92C25.1361 34.4267 25.7095 34.8133 26.3228 35.08C26.9628 35.3733 27.6695 35.52 28.4428 35.52C29.3761 35.52 30.1761 35.2533 30.8428 34.72C31.5361 34.2133 32.1895 33.3067 32.8028 32L34.1628 28.92L34.4828 28.48L43.1228 9H45.9228L35.4028 32.52C34.8161 33.88 34.1628 34.96 33.4428 35.76C32.7495 36.56 31.9895 37.12 31.1628 37.44C30.3361 37.7867 29.4161 37.96 28.4028 37.96ZM34.0028 30.6L24.3228 9H27.2828L35.8428 28.28L34.0028 30.6ZM74.5625 8.8C76.2692 8.8 77.7492 9.13333 79.0025 9.8C80.2825 10.44 81.2692 11.4267 81.9625 12.76C82.6825 14.0933 83.0425 15.7733 83.0425 17.8V30H80.2025V18.08C80.2025 15.8667 79.6692 14.2 78.6025 13.08C77.5625 11.9333 76.0825 11.36 74.1625 11.36C72.7225 11.36 71.4692 11.6667 70.4025 12.28C69.3625 12.8667 68.5492 13.7333 67.9625 14.88C67.4025 16 67.1225 17.36 67.1225 18.96V30H64.2825V18.08C64.2825 15.8667 63.7492 14.2 62.6825 13.08C61.6158 11.9333 60.1225 11.36 58.2025 11.36C56.7892 11.36 55.5492 11.6667 54.4825 12.28C53.4158 12.8667 52.5892 13.7333 52.0025 14.88C51.4425 16 51.1625 17.36 51.1625 18.96V30H48.3225V9H51.0425V14.68L50.6025 13.68C51.2425 12.16 52.2692 10.9733 53.6825 10.12C55.1225 9.24 56.8158 8.8 58.7625 8.8C60.8158 8.8 62.5625 9.32 64.0025 10.36C65.4425 11.3733 66.3758 12.9067 66.8025 14.96L65.6825 14.52C66.2958 12.8133 67.3758 11.44 68.9225 10.4C70.4958 9.33333 72.3758 8.8 74.5625 8.8Z" fill="white"/>
<path d="M101.144 8.16C102.851 8.16 104.371 8.50667 105.704 9.2C107.064 9.86667 108.131 10.9067 108.904 12.32C109.678 13.7067 110.064 15.4933 110.064 17.68V30H103.824V18.64C103.824 16.9067 103.438 15.6267 102.664 14.8C101.918 13.9733 100.851 13.56 99.4644 13.56C98.4777 13.56 97.5844 13.7733 96.7844 14.2C96.011 14.6 95.3977 15.2267 94.9444 16.08C94.5177 16.9333 94.3044 18.0267 94.3044 19.36V30H88.0644V0.319998H94.3044V14.44L92.9044 12.64C93.6777 11.2 94.7844 10.0933 96.2244 9.32C97.6644 8.54667 99.3044 8.16 101.144 8.16ZM124.957 30.32C122.504 30.32 120.344 29.84 118.477 28.88C116.637 27.92 115.21 26.6133 114.197 24.96C113.184 23.28 112.677 21.3733 112.677 19.24C112.677 17.08 113.17 15.1733 114.157 13.52C115.17 11.84 116.544 10.5333 118.277 9.6C120.01 8.64 121.97 8.16 124.157 8.16C126.264 8.16 128.157 8.61333 129.837 9.52C131.544 10.4 132.89 11.68 133.877 13.36C134.864 15.0133 135.357 17 135.357 19.32C135.357 19.56 135.344 19.84 135.317 20.16C135.29 20.4533 135.264 20.7333 135.237 21H117.757V17.36H131.957L129.557 18.44C129.557 17.32 129.33 16.3467 128.877 15.52C128.424 14.6933 127.797 14.0533 126.997 13.6C126.197 13.12 125.264 12.88 124.197 12.88C123.13 12.88 122.184 13.12 121.357 13.6C120.557 14.0533 119.93 14.7067 119.477 15.56C119.024 16.3867 118.797 17.3733 118.797 18.52V19.48C118.797 20.6533 119.05 21.6933 119.557 22.6C120.09 23.48 120.824 24.16 121.757 24.64C122.717 25.0933 123.837 25.32 125.117 25.32C126.264 25.32 127.264 25.1467 128.117 24.8C128.997 24.4533 129.797 23.9333 130.517 23.24L133.837 26.84C132.85 27.96 131.61 28.8267 130.117 29.44C128.624 30.0267 126.904 30.32 124.957 30.32ZM137.911 30V0.319998H144.151V30H137.911ZM161.062 30.32C159.249 30.32 157.662 29.92 156.302 29.12C154.942 28.32 153.876 27.1067 153.102 25.48C152.356 23.8267 151.982 21.7467 151.982 19.24C151.982 16.7067 152.342 14.6267 153.062 13C153.782 11.3733 154.822 10.16 156.182 9.36C157.542 8.56 159.169 8.16 161.062 8.16C163.089 8.16 164.902 8.62667 166.502 9.56C168.129 10.4667 169.409 11.7467 170.342 13.4C171.302 15.0533 171.782 17 171.782 19.24C171.782 21.5067 171.302 23.4667 170.342 25.12C169.409 26.7733 168.129 28.0533 166.502 28.96C164.902 29.8667 163.089 30.32 161.062 30.32ZM148.342 37.76V8.48H154.302V12.88L154.182 19.28L154.582 25.64V37.76H148.342ZM159.982 25.2C161.022 25.2 161.942 24.96 162.742 24.48C163.569 24 164.222 23.32 164.702 22.44C165.209 21.5333 165.462 20.4667 165.462 19.24C165.462 17.9867 165.209 16.92 164.702 16.04C164.222 15.16 163.569 14.48 162.742 14C161.942 13.52 161.022 13.28 159.982 13.28C158.942 13.28 158.009 13.52 157.182 14C156.356 14.48 155.702 15.16 155.222 16.04C154.742 16.92 154.502 17.9867 154.502 19.24C154.502 20.4667 154.742 21.5333 155.222 22.44C155.702 23.32 156.356 24 157.182 24.48C158.009 24.96 158.942 25.2 159.982 25.2ZM185.04 30.32C182.586 30.32 180.426 29.84 178.56 28.88C176.72 27.92 175.293 26.6133 174.28 24.96C173.266 23.28 172.76 21.3733 172.76 19.24C172.76 17.08 173.253 15.1733 174.24 13.52C175.253 11.84 176.626 10.5333 178.36 9.6C180.093 8.64 182.053 8.16 184.24 8.16C186.346 8.16 188.24 8.61333 189.92 9.52C191.626 10.4 192.973 11.68 193.96 13.36C194.946 15.0133 195.44 17 195.44 19.32C195.44 19.56 195.426 19.84 195.4 20.16C195.373 20.4533 195.346 20.7333 195.32 21H177.84V17.36H192.04L189.64 18.44C189.64 17.32 189.413 16.3467 188.96 15.52C188.506 14.6933 187.88 14.0533 187.08 13.6C186.28 13.12 185.346 12.88 184.28 12.88C183.213 12.88 182.266 13.12 181.44 13.6C180.64 14.0533 180.013 14.7067 179.56 15.56C179.106 16.3867 178.88 17.3733 178.88 18.52V19.48C178.88 20.6533 179.133 21.6933 179.64 22.6C180.173 23.48 180.906 24.16 181.84 24.64C182.8 25.0933 183.92 25.32 185.2 25.32C186.346 25.32 187.346 25.1467 188.2 24.8C189.08 24.4533 189.88 23.9333 190.6 23.24L193.92 26.84C192.933 27.96 191.693 28.8267 190.2 29.44C188.706 30.0267 186.986 30.32 185.04 30.32ZM197.994 30V8.48H203.954V14.56L203.114 12.8C203.754 11.28 204.781 10.1333 206.194 9.36C207.607 8.56 209.327 8.16 211.354 8.16V13.92C211.087 13.8933 210.847 13.88 210.634 13.88C210.421 13.8533 210.194 13.84 209.954 13.84C208.247 13.84 206.861 14.3333 205.794 15.32C204.754 16.28 204.234 17.7867 204.234 19.84V30H197.994Z" fill="#C8FC01"/>
</svg>
